Fly_normalized_Motion_pl08
version=1
nRows=22
nColumns=43
inDegrees=yes
endheader
time		pelvis_tilt		pelvis_list		pelvis_rotation		pelvis_tx		pelvis_ty		pelvis_tz		hip_flexion_r		hip_adduction_r		hip_rotation_r		knee_angle_r		ankle_angle_r		subtalar_angle_r		mtp_angle_r		hip_flexion_l		hip_adduction_l		hip_rotation_l		knee_angle_l		ankle_angle_l		subtalar_angle_l		mtp_angle_l		lumbar_extension		lumbar_bending		lumbar_rotation		neck_flexion		neck_lateral_bending		neck_rotation		arm_flex_r		arm_add_r		arm_rot_r		elbow_flex_r		pro_sup_r		wrist_flex_r		wrist_dev_r		hand_finger_flex_r		arm_flex_l		arm_add_l		arm_rot_l		elbow_flex_l		pro_sup_l		wrist_flex_l		wrist_dev_l		hand_finger_flex_l		
1.390000		-0.588503		-12.262172		93.050919		-0.002296		1.870926		1.458015		40.361251		-7.699917		4.037348		-106.611090		-10.173660		2.049528		8.144029		41.720155		-4.802827		6.082831		-111.726650		-11.094449		-21.216622		15.946796		-41.482833		0.463746		2.462739		9.753631		1.602350		-5.173672		127.786891		-10.927400		34.453266		59.997635		70.904906		-33.483970		-2.977953		44.838055		125.672924		-2.853764		24.622837		67.850616		108.267794		-26.952503		17.127125		88.197782		
1.394318		-0.518554		-12.324298		93.174586		-0.002859		1.870558		1.450422		41.005938		-7.791816		3.639740		-106.303077		-10.489692		0.569308		7.386385		42.303287		-4.659518		5.873647		-111.765080		-10.308005		-22.136462		10.979935		-41.295100		0.639247		2.469075		9.462959		1.408894		-5.232590		127.891240		-11.135813		34.995290		60.160647		71.255251		-33.595798		-3.243745		43.724733		125.510292		-3.129615		25.032207		68.089301		107.177091		-27.619319		16.669355		88.239057		
1.398636		-0.565767		-12.194104		93.143863		-0.003256		1.870246		1.442680		41.534712		-7.911132		3.478207		-106.054415		-10.907062		-0.673976		7.115007		42.652387		-4.506309		5.629211		-111.739080		-10.157808		-22.670054		10.634483		-41.337277		0.605259		2.435352		9.354731		1.409382		-5.288382		127.937875		-11.279538		35.264387		60.272977		71.510262		-33.677517		-3.334637		43.612510		125.291502		-3.231602		25.094135		68.367350		107.192251		-27.609121		16.654254		88.311831		
1.402955		-0.569766		-12.130502		93.117478		-0.003588		1.869696		1.435036		42.201445		-7.998269		3.253225		-105.804316		-11.473939		-2.261399		6.687242		43.140472		-4.413192		5.381255		-111.707947		-10.194298		-23.469833		10.152030		-41.321747		0.594694		2.427010		9.236495		1.433013		-5.333347		127.942985		-11.465482		35.575191		60.459842		71.851828		-33.838899		-3.473242		43.438097		125.031989		-3.380130		25.188206		68.723673		107.169102		-27.634423		16.603069		88.385346		
1.407273		-0.534302		-12.123627		93.110193		-0.003907		1.868904		1.427530		42.990778		-8.059918		2.970982		-105.579574		-12.035365		-4.011596		6.009263		43.765503		-4.345573		5.161084		-111.679448		-10.479851		-24.522399		9.502714		-41.268171		0.624640		2.440653		9.110380		1.422907		-5.357873		127.905915		-11.709327		35.912006		60.756659		72.261542		-34.030115		-3.635225		43.238779		124.717641		-3.574028		25.287078		69.172130		107.124137		-27.749469		16.510573		88.453099		
1.411591		-0.504894		-12.385017		93.134597		-0.004416		1.867664		1.420267		44.114275		-8.196140		2.512173		-105.380716		-12.443863		-6.638466		3.664926		44.789219		-4.218611		4.811770		-111.655197		-11.305208		-26.606935		7.709169		-40.960516		0.696818		2.435298		8.948024		1.367062		-5.372309		127.808164		-12.080485		36.385757		61.311990		73.099919		-34.372188		-3.841528		42.998692		124.227586		-3.936956		25.418319		69.973802		107.082467		-28.200910		16.404032		88.675203		
1.415909		-0.492098		-12.296633		93.123337		-0.004748		1.866731		1.412947		44.843468		-8.268175		2.274323		-105.235965		-11.930010		-7.416266		1.289017		45.423729		-4.135311		4.573082		-111.682491		-11.482389		-27.579138		5.701590		-41.057248		0.716707		2.418028		8.875803		1.353969		-5.329829		127.680886		-12.306792		36.493264		61.689879		73.594836		-34.453876		-3.855859		43.016619		123.927305		-4.184260		25.555564		70.467446		107.073887		-28.555593		16.381461		88.965799		
1.420227		-0.535527		-12.266714		93.131120		-0.004995		1.865699		1.405473		45.613449		-8.369001		2.015848		-105.065232		-11.296874		-8.504961		-1.739718		46.094572		-3.912062		4.277125		-111.630720		-11.633015		-28.717754		2.982508		-41.075240		0.698430		2.311590		8.887243		1.295823		-5.294463		127.425584		-12.626625		36.700039		62.244402		74.232806		-34.556292		-3.895665		43.066063		123.421949		-4.573799		25.717330		71.187333		107.065471		-28.966672		16.338698		89.358480		
1.424545		-0.530202		-12.397924		93.205543		-0.005322		1.864158		1.398461		46.639483		-8.455065		1.672182		-104.843371		-11.411282		-10.071423		-2.691881		47.078666		-3.653283		4.013358		-111.635721		-12.287515		-30.522477		1.295427		-40.929883		0.761615		2.176136		8.779428		1.175306		-5.247633		127.110900		-12.860975		36.904768		62.708156		74.922315		-35.066806		-4.047556		42.873070		122.909983		-4.920967		25.775117		71.780543		107.102224		-29.133767		16.188429		89.458541		
1.428864		-0.589065		-12.328242		93.175461		-0.005513		1.862855		1.391232		47.462502		-8.475072		1.601831		-104.601379		-11.110810		-10.256495		-3.923050		47.787002		-3.397581		3.658436		-111.566391		-12.283473		-31.429191		-2.131935		-41.043747		0.695701		2.069305		8.781311		1.237711		-5.249662		126.742610		-13.169656		36.886347		63.306772		75.582133		-35.153601		-3.989678		43.024861		122.380073		-5.286516		25.854367		72.484080		107.132493		-29.413503		16.042986		89.626382		
1.433182		-0.632280		-12.161279		93.159651		-0.005692		1.861552		1.383863		48.155140		-8.509723		1.457291		-104.280767		-10.908253		-10.430137		-4.800324		48.379708		-3.176622		3.301052		-111.427814		-12.182687		-32.086547		-4.745163		-41.246146		0.668261		1.954098		8.745790		1.202731		-5.213903		126.279624		-13.481261		36.886251		63.949824		76.080455		-35.285940		-4.008672		43.111652		121.768969		-5.712095		25.921954		73.217482		107.161837		-29.618452		15.902351		89.768776		
1.437500		-0.581078		-11.914175		93.188409		-0.005812		1.860211		1.376396		48.722482		-8.460363		1.212318		-103.882701		-10.853892		-10.558095		-4.768180		48.882620		-3.045636		3.049610		-111.222972		-12.141986		-32.575612		-4.947194		-41.527319		0.742961		1.864937		8.720952		1.147543		-5.155774		125.756673		-13.803410		36.946606		64.619159		76.288780		-35.541305		-4.192579		43.024752		121.057740		-6.192973		25.926076		74.048013		107.195323		-29.657968		15.761341		89.821445		
1.441818		-0.517793		-12.038713		93.214620		-0.006030		1.857880		1.369307		49.764901		-8.412141		1.026738		-103.531909		-10.727610		-10.361067		-4.527916		49.881306		-2.885173		2.730187		-110.999794		-12.518311		-33.663618		-5.688815		-41.338485		0.830228		1.750200		8.406325		1.031990		-5.053529		125.009630		-14.007635		36.974744		65.237887		76.913959		-36.353526		-4.346655		42.730517		120.132893		-6.662258		25.860655		74.855394		107.342349		-29.814769		15.558461		89.809318		
1.446136		-0.480125		-11.753341		93.197113		-0.006100		1.856280		1.361828		50.287686		-8.321374		0.846258		-103.069105		-10.536826		-10.020680		-4.371680		50.319959		-2.829103		2.390253		-110.614780		-12.459665		-33.848431		-5.867768		-41.654033		0.856250		1.728186		8.335783		1.034993		-5.052741		124.335177		-14.451990		36.992455		66.031008		77.110264		-36.491324		-4.464401		42.735358		119.281549		-7.135820		25.851370		75.720767		107.334485		-29.833150		15.474197		89.894703		
1.450455		-0.551482		-11.984789		93.061018		-0.006229		1.853389		1.354666		51.490816		-8.237075		1.005414		-102.763667		-9.940164		-8.667031		-3.469932		51.336847		-2.724561		1.839684		-110.203241		-12.484687		-34.196680		-6.627055		-41.296764		0.730325		1.703101		7.839283		1.032543		-5.052206		123.312459		-14.778093		36.898809		66.851211		77.928060		-37.263557		-4.276276		42.540665		118.113936		-7.534868		25.713621		76.546586		107.429382		-29.874914		15.402881		90.000210		
1.454773		-0.518174		-11.725507		92.955472		-0.006140		1.851444		1.347067		52.028033		-8.025563		0.930524		-102.237118		-9.649438		-7.995528		-2.961157		51.724429		-2.767891		1.404053		-109.649680		-12.225133		-34.148021		-6.839383		-41.513138		0.686944		1.778463		7.479750		0.979340		-5.045934		122.243909		-15.192809		36.623927		67.789489		78.146754		-37.574599		-4.265089		42.511087		116.994038		-7.897899		25.528759		77.334275		107.312031		-29.835148		15.382587		90.000210		
1.459091		-0.546837		-11.555134		92.814480		-0.006080		1.849129		1.339528		52.702586		-7.872041		0.935468		-101.735044		-9.425460		-7.148561		-2.207634		52.209945		-2.781489		0.903819		-109.034079		-12.034279		-33.845019		-7.044696		-41.640937		0.578883		1.819414		7.165906		1.010019		-5.057537		121.209536		-15.703308		36.553597		68.755082		78.504640		-37.885579		-4.163129		42.501657		115.841210		-8.391942		25.465050		78.201001		107.206999		-29.700907		15.339977		90.000210		
1.463409		-0.672005		-11.471077		92.546582		-0.005896		1.846402		1.331843		53.481997		-7.690944		1.136565		-101.225658		-9.167316		-5.984484		-0.827803		52.718667		-2.786078		0.284267		-108.366911		-11.660239		-33.250500		-7.074588		-41.604370		0.305428		1.853496		6.663128		1.072561		-5.080989		119.919073		-16.179708		36.343113		69.763707		78.994027		-38.395677		-3.897310		42.532584		114.500924		-8.855347		25.349711		79.048001		106.984689		-29.512186		15.329576		90.000210		
1.467727		-0.716497		-11.140609		92.398939		-0.005933		1.844186		1.323999		53.873923		-7.555480		1.115045		-100.545713		-9.090594		-5.271853		0.029055		52.936301		-2.775318		-0.239251		-107.567451		-11.483345		-32.805002		-6.931803		-41.870760		0.202944		1.902030		6.174162		1.003256		-5.074142		118.597469		-16.663530		36.035205		70.808752		79.191268		-38.723160		-3.856268		42.623444		113.141163		-9.339526		25.196147		79.908257		106.745418		-29.500012		15.347347		90.000210		
1.472045		-0.909142		-10.948476		92.166662		-0.005962		1.841360		1.316163		54.455854		-7.486512		1.303517		-99.922324		-8.963793		-4.334658		1.498682		53.260730		-2.675627		-0.868056		-106.736852		-11.134121		-31.886600		-6.379926		-41.961296		-0.076723		1.849308		5.724282		1.078875		-5.083791		117.266857		-17.255112		35.930764		71.871242		79.607444		-39.106000		-3.585308		42.860089		111.762017		-10.011254		25.303626		80.843475		106.422941		-29.532246		15.409849		90.000210		
1.476364		-0.937976		-10.540671		92.073860		-0.006252		1.838889		1.308127		54.677704		-7.413177		1.194280		-99.167388		-9.019312		-3.935209		2.244718		53.357971		-2.603130		-1.325841		-105.821113		-11.168508		-31.289904		-6.040002		-42.285557		-0.109333		1.887103		5.256877		0.995697		-5.088332		115.833170		-17.844333		35.710442		72.960013		79.721903		-39.351585		-3.547295		43.015895		110.256187		-10.595876		25.207506		81.759334		106.175113		-29.620344		15.435083		90.000210		
1.480682		-0.958362		-10.193313		91.972375		-0.006466		1.836083		1.300124		54.943331		-7.314121		1.092058		-98.380132		-9.064963		-3.561975		3.183338		53.495499		-2.553974		-1.749796		-104.865712		-11.066774		-30.368604		-5.390447		-42.539435		-0.160411		1.930499		4.795171		1.004901		-5.109897		114.403856		-18.543154		35.634219		74.083305		79.853659		-39.624369		-3.392228		43.220344		108.753907		-11.302297		25.271927		82.713211		105.893687		-29.735862		15.450883		90.000210		
